<svg width="863" height="160" viewBox="0 0 863 160" fill="none" xmlns="http://www.w3.org/2000/svg">
<rect width="160" height="160" rx="80" fill="white"/>
<rect width="160" height="160" rx="80" fill="url(#paint0_linear)"/>
<circle cx="80" cy="80" r="75" fill="white"/>
<path fill-rule="evenodd" clip-rule="evenodd" d="M49.6666 52C47.6058 52 45.789 53.3518 45.1968 55.3257L31.1968 101.992C30.773 103.405 31.0421 104.935 31.9227 106.119C32.8032 107.302 34.1915 108 35.6667 108C48.1071 108 57.8083 104.282 63.0953 98.2395C65.7793 95.172 67.3484 91.4385 67.2377 87.4536C67.1266 83.4549 65.3388 79.7392 62.2997 76.7001C60.4773 74.8776 57.5225 74.8776 55.7001 76.7001C53.8777 78.5225 53.8777 81.4773 55.7001 83.2997C57.3277 84.9273 57.8732 86.4615 57.908 87.7128C57.9431 88.9779 57.4705 90.4943 56.0712 92.0935C53.8062 94.6821 49.2195 97.2652 42.0638 98.2498L53.1388 61.3333H64.8611L77.8633 104.674C78.6039 107.143 81.2055 108.544 83.6741 107.803C86.1427 107.062 87.5436 104.461 86.803 101.992L72.8031 55.3257C72.2109 53.3518 70.3941 52 68.3332 52H49.6666ZM82.3332 52C80.8581 52 79.4698 52.6975 78.5892 53.881C77.7086 55.0645 77.4395 56.5947 77.8634 58.0076L91.8633 104.674C92.6039 107.143 95.2055 108.544 97.6741 107.803C100.143 107.062 101.544 104.461 100.803 101.992L88.7303 61.75C95.886 62.7346 100.473 65.3176 102.738 67.9063C104.137 69.5055 104.61 71.0219 104.575 72.287C104.54 73.5383 103.994 75.0725 102.367 76.7001C100.685 78.3815 100.537 81.0583 102.022 82.9151L120.689 106.248C122.299 108.261 125.236 108.587 127.248 106.977C129.261 105.367 129.587 102.43 127.977 100.418L111.621 79.9723C113.029 77.6951 113.831 75.1821 113.904 72.5462C114.015 68.5613 112.446 64.8278 109.762 61.7603C104.475 55.718 94.7736 52 82.3332 52Z" fill="black"/>
<path fill-rule="evenodd" clip-rule="evenodd" d="M49.6666 52C47.6058 52 45.789 53.3518 45.1968 55.3257L31.1968 101.992C30.773 103.405 31.0421 104.935 31.9227 106.119C32.8032 107.302 34.1915 108 35.6667 108C48.1071 108 57.8083 104.282 63.0953 98.2395C65.7793 95.172 67.3484 91.4385 67.2377 87.4536C67.1266 83.4549 65.3388 79.7392 62.2997 76.7001C60.4773 74.8776 57.5225 74.8776 55.7001 76.7001C53.8777 78.5225 53.8777 81.4773 55.7001 83.2997C57.3277 84.9273 57.8732 86.4615 57.908 87.7128C57.9431 88.9779 57.4705 90.4943 56.0712 92.0935C53.8062 94.6821 49.2195 97.2652 42.0638 98.2498L53.1388 61.3333H64.8611L77.8633 104.674C78.6039 107.143 81.2055 108.544 83.6741 107.803C86.1427 107.062 87.5436 104.461 86.803 101.992L72.8031 55.3257C72.2109 53.3518 70.3941 52 68.3332 52H49.6666ZM82.3332 52C80.8581 52 79.4698 52.6975 78.5892 53.881C77.7086 55.0645 77.4395 56.5947 77.8634 58.0076L91.8633 104.674C92.6039 107.143 95.2055 108.544 97.6741 107.803C100.143 107.062 101.544 104.461 100.803 101.992L88.7303 61.75C95.886 62.7346 100.473 65.3176 102.738 67.9063C104.137 69.5055 104.61 71.0219 104.575 72.287C104.54 73.5383 103.994 75.0725 102.367 76.7001C100.685 78.3815 100.537 81.0583 102.022 82.9151L120.689 106.248C122.299 108.261 125.236 108.587 127.248 106.977C129.261 105.367 129.587 102.43 127.977 100.418L111.621 79.9723C113.029 77.6951 113.831 75.1821 113.904 72.5462C114.015 68.5613 112.446 64.8278 109.762 61.7603C104.475 55.718 94.7736 52 82.3332 52Z" fill="url(#paint1_linear)"/>
<path d="M192.512 124L222.208 39.52H248.576L278.144 124H255.488L249.728 104.928H220.544L214.656 124H192.512ZM231.552 69.6L225.152 89.952H245.12L238.976 69.728L235.264 56.416H235.008L231.552 69.6ZM328.289 39.52C338.358 39.52 346.166 41.8667 351.713 46.56C357.345 51.2533 360.161 57.568 360.161 65.504C360.161 71.8187 358.668 77.024 355.681 81.12C352.78 85.1307 348.598 88.0747 343.137 89.952L365.153 124H340.833L322.785 93.152H309.601V124H287.969V39.52H328.289ZM325.217 77.536C329.484 77.536 332.684 76.6827 334.817 74.976C336.95 73.2693 338.017 70.5387 338.017 66.784C338.017 59.7013 333.75 56.16 325.217 56.16H309.601V77.536H325.217ZM367.387 124L397.083 39.52H423.451L453.019 124H430.363L424.603 104.928H395.419L389.531 124H367.387ZM406.427 69.6L400.027 89.952H419.995L413.851 69.728L410.139 56.416H409.883L406.427 69.6ZM462.844 124V39.52H503.932C514.343 39.52 522.023 41.4827 526.972 45.408C531.921 49.3333 534.396 54.9653 534.396 62.304C534.396 67.0827 532.988 71.2213 530.172 74.72C527.356 78.2187 523.047 80.3947 517.244 81.248V81.376C523.729 82.2293 528.551 84.4907 531.708 88.16C534.951 91.744 536.572 96.096 536.572 101.216C536.572 108.469 533.969 114.101 528.764 118.112C523.644 122.037 516.007 124 505.852 124H462.844ZM484.092 74.08H500.092C507.943 74.08 511.868 71.008 511.868 64.864C511.868 58.72 507.943 55.648 500.092 55.648H484.092V74.08ZM484.092 108.512H502.14C510.076 108.512 514.044 105.355 514.044 99.04C514.044 92.896 510.076 89.824 502.14 89.824H484.092V108.512ZM550.344 124V39.52H616.136V56.544H572.36V73.696H607.176V89.696H572.36V106.976H617.8V124H550.344ZM653.11 106.976H695.478V124H631.094V39.52H653.11V106.976ZM730.11 106.976H772.478V124H708.094V39.52H730.11V106.976ZM776.262 124L805.958 39.52H832.326L861.894 124H839.238L833.478 104.928H804.294L798.406 124H776.262ZM815.302 69.6L808.902 89.952H828.87L822.726 69.728L819.014 56.416H818.758L815.302 69.6Z" fill="black"/>
<path d="M192.512 124L222.208 39.52H248.576L278.144 124H255.488L249.728 104.928H220.544L214.656 124H192.512ZM231.552 69.6L225.152 89.952H245.12L238.976 69.728L235.264 56.416H235.008L231.552 69.6ZM328.289 39.52C338.358 39.52 346.166 41.8667 351.713 46.56C357.345 51.2533 360.161 57.568 360.161 65.504C360.161 71.8187 358.668 77.024 355.681 81.12C352.78 85.1307 348.598 88.0747 343.137 89.952L365.153 124H340.833L322.785 93.152H309.601V124H287.969V39.52H328.289ZM325.217 77.536C329.484 77.536 332.684 76.6827 334.817 74.976C336.95 73.2693 338.017 70.5387 338.017 66.784C338.017 59.7013 333.75 56.16 325.217 56.16H309.601V77.536H325.217ZM367.387 124L397.083 39.52H423.451L453.019 124H430.363L424.603 104.928H395.419L389.531 124H367.387ZM406.427 69.6L400.027 89.952H419.995L413.851 69.728L410.139 56.416H409.883L406.427 69.6ZM462.844 124V39.52H503.932C514.343 39.52 522.023 41.4827 526.972 45.408C531.921 49.3333 534.396 54.9653 534.396 62.304C534.396 67.0827 532.988 71.2213 530.172 74.72C527.356 78.2187 523.047 80.3947 517.244 81.248V81.376C523.729 82.2293 528.551 84.4907 531.708 88.16C534.951 91.744 536.572 96.096 536.572 101.216C536.572 108.469 533.969 114.101 528.764 118.112C523.644 122.037 516.007 124 505.852 124H462.844ZM484.092 74.08H500.092C507.943 74.08 511.868 71.008 511.868 64.864C511.868 58.72 507.943 55.648 500.092 55.648H484.092V74.08ZM484.092 108.512H502.14C510.076 108.512 514.044 105.355 514.044 99.04C514.044 92.896 510.076 89.824 502.14 89.824H484.092V108.512ZM550.344 124V39.52H616.136V56.544H572.36V73.696H607.176V89.696H572.36V106.976H617.8V124H550.344ZM653.11 106.976H695.478V124H631.094V39.52H653.11V106.976ZM730.11 106.976H772.478V124H708.094V39.52H730.11V106.976ZM776.262 124L805.958 39.52H832.326L861.894 124H839.238L833.478 104.928H804.294L798.406 124H776.262ZM815.302 69.6L808.902 89.952H828.87L822.726 69.728L819.014 56.416H818.758L815.302 69.6Z" fill="url(#paint2_linear)"/>
<defs>
<linearGradient id="paint0_linear" x1="159.996" y1="-1.09133e-05" x2="-16.2322" y2="108.679" gradientUnits="userSpaceOnUse">
<stop stop-color="#FFBF00"/>
<stop offset="1" stop-color="#33CC7F"/>
</linearGradient>
<linearGradient id="paint1_linear" x1="128.998" y1="52" x2="60.1688" y2="126.279" gradientUnits="userSpaceOnUse">
<stop stop-color="#FFBF00"/>
<stop offset="1" stop-color="#33CC7F"/>
</linearGradient>
<linearGradient id="paint2_linear" x1="862.985" y1="16" x2="773.899" y2="303.998" gradientUnits="userSpaceOnUse">
<stop stop-color="#FFBF00"/>
<stop offset="1" stop-color="#33CC7F"/>
</linearGradient>
</defs>
</svg>
